<?xml version="1.0" encoding="UTF-8"?>
<svg width="24px" height="24px" viewBox="0 0 24 24" version="1.1" xmlns="http://www.w3.org/2000/svg" xmlns:xlink="http://www.w3.org/1999/xlink">
    <title>standard/action/download</title>
    <defs>
        <path d="M11.9998992,9 C12.552184,8.99994398 12.9999443,9.45050521 13,10.0063567 L13.0009,17.6522 L13.3131356,17.3383514 C13.669345,16.9795027 14.22985,16.9518989 14.6174896,17.2555401 L14.7105798,17.3383514 C15.0964734,17.7271041 15.0964734,18.3573969 14.7105798,18.7461497 L12.7916075,20.6793402 C12.5765896,20.8959513 12.2936972,21.0028266 12.0116782,20.9999432 L12.0011008,21 C11.8433051,21.000016 11.6940421,20.9632469 11.5613159,20.897747 C11.4477816,20.8428442 11.3446586,20.7708245 11.2536714,20.6791632 L9.28924451,18.6991859 C8.90344798,18.3103354 8.9036053,17.6800426 9.28959589,17.2913876 C9.67558648,16.9027326 10.3012436,16.9028911 10.6870401,17.2917416 L11.0009,17.6072 L11,10.0065595 C10.9999443,9.45070807 11.4476145,9.00005602 11.9998992,9 Z M11.0239,3.0002 C12.9989,3.02128597 14.9249,3.90087197 16.0619,5.48031122 C16.3179,5.43914338 16.5779,5.41805742 16.8389,5.41805742 C19.6439,5.41906151 21.9999,7.62003471 21.9999,10.4987711 C21.9999,13.4076303 19.6149,16.0002 16.8999,16.0002 L14.0189,16.0002 L14.0189,14.0070742 L16.8999,14.0070742 C18.5569,14.0070742 20.0149,12.3442952 20.0149,10.4987711 C20.0149,8.72052131 18.5459,7.41218733 16.9109,7.41218733 L16.8989,7.41218733 C16.5099,7.41218733 16.2129,7.46339611 15.9289,7.56280137 L15.7589,7.62505518 L15.634361,7.66729334 C15.1167061,7.80501334 14.8839,7.37905224 14.8839,7.37905224 L14.7339,7.11196334 C14.0039,5.76547381 12.5329,5.01641997 11.0179,4.99332582 C8.9359,5.027465 7.2209,6.54063408 6.9489,8.63718154 L6.9029,8.97756927 C6.9029,8.97756927 6.8319,9.50170614 6.2379,9.50170614 C6.2249,9.50170614 6.2259,9.5077307 6.2149,9.5077307 L5.9609,9.5077307 C4.8249,9.5077307 3.9849,10.465636 3.9849,11.6655279 C3.9849,12.8714443 4.9719,14.0070742 6.0549,14.0070742 L10.0189,14.0070742 L10.0189,16.0002 L6.0549,16.0002 C3.8949,16.0002 1.9999,13.9548613 1.9999,11.6655279 C1.9999,9.6653734 3.3119,8.00159028 5.1379,7.590916 C5.8449,4.88387962 8.1909,3.03935965 11.0239,3.0002 Z" id="path-1"></path>
    </defs>
    <g id="standard/action/download" stroke="none" stroke-width="1" fill="none" fill-rule="evenodd">
        <mask id="mask-2" fill="white">
            <use xlink:href="#path-1"></use>
        </mask>
        <use id="Fill-5" fill="#42526E" xlink:href="#path-1"></use>
        <g id="↳-🎨Color" mask="url(#mask-2)" fill="#42526E">
            <polygon id="N500" points="0 24 24 24 24 0 0 0"></polygon>
        </g>
    </g>
</svg>