<?xml version="1.0" encoding="UTF-8"?>
<svg width="24px" height="24px" viewBox="0 0 24 24" version="1.1" xmlns="http://www.w3.org/2000/svg" xmlns:xlink="http://www.w3.org/1999/xlink">
    <title>file type/file/source code/medium</title>
    <defs>
        <path d="M12.88345,4.67579516 C13.06345,4.15279516 13.63245,3.87479516 14.15445,4.05479516 C14.67645,4.23479516 14.95445,4.80379516 14.77445,5.32579516 L9.94545,19.3717952 C9.76645,19.8937952 9.19745,20.1717952 8.67445,19.9917952 C8.15245,19.8117952 7.87445,19.2427952 8.05445,18.7207952 Z M6.84375,5.61389516 C7.24075,5.22889516 7.87375,5.23889516 8.25775,5.63589516 C8.64275,6.03189516 8.63275,6.66489516 8.23575,7.04989516 L5.43675,9.76389516 L8.01675,12.2648952 C8.41275,12.6488952 8.42275,13.2828952 8.03875,13.6788952 C7.65375,14.0758952 7.02075,14.0848952 6.62475,13.7008952 L3.30375,10.4818952 C2.89875,10.0888952 2.89875,9.43889516 3.30375,9.04589516 Z M20.23605,13.8329952 L16.91505,10.6139952 C16.51905,10.2289952 15.88605,10.2389952 15.50105,10.6359952 C15.11705,11.0319952 15.12705,11.6649952 15.52305,12.0499952 L18.10305,14.5509952 L15.30405,17.2649952 C14.90705,17.6489952 14.89705,18.2819952 15.28205,18.6789952 C15.66605,19.0759952 16.29905,19.0849952 16.69605,18.7009952 L20.23605,15.2689952 C20.64105,14.8759952 20.64105,14.2259952 20.23605,13.8329952" id="path-1"></path>
    </defs>
    <g id="file-type/file/source-code/medium" stroke="none" stroke-width="1" fill="none" fill-rule="evenodd">
        <rect id="Path" fill="#00B8D9" x="0" y="0" width="24" height="24" rx="3"></rect>
        <mask id="mask-2" fill="white">
            <use xlink:href="#path-1"></use>
        </mask>
        <use id="Combined-Shape" fill="#FFFFFF" xlink:href="#path-1"></use>
    </g>
</svg>